<svg xmlns="http://www.w3.org/2000/svg" width="33" height="33" fill="none" xmlns:v="https://vecta.io/nano"><circle cx="16.5" cy="16.5" r="16.5" fill="#fff"/><path fill-rule="evenodd" d="M8 13v-2H6c-.55 0-1-.45-1-1s.45-1 1-1h2V7c0-.55.45-1 1-1s1 .45 1 1v2h2c.55 0 1 .45 1 1s-.45 1-1 1h-2v2c0 .55-.45 1-1 1s-1-.45-1-1zm10 9a3 3 0 1 1 0-6 3 3 0 1 1 0 6zm8-11c1.1 0 2 .9 2 2v12c0 1.1-.9 2-2 2H10c-1.1 0-2-.9-2-2V14.72c.3.17.63.28 1 .28 1.1 0 2-.9 2-2v-1h1c1.1 0 2-.9 2-2 0-.37-.1-.7-.28-1h6.4a1.99 1.99 0 0 1 1.47.65L22.83 11H26zm-8 13c2.76 0 5-2.24 5-5s-2.24-5-5-5-5 2.24-5 5 2.24 5 5 5z" fill="#1d1d1d"/></svg>